<?xml version="1.0" ?><svg id="Layer_1" style="enable-background:new 0 0 712 190;" version="1.1" viewBox="0 0 712 190" xml:space="preserve" xmlns="http://www.w3.org/2000/svg" xmlns:xlink="http://www.w3.org/1999/xlink"><style type="text/css">
	.st0{fill:#2AAAE1;}
</style><g><path class="st0" d="M333.7,39.8h-29.5l0,55.1c0,16.1-6.9,29.1-23,29.1c-16.1,0-23.1-13-23.1-29.1V39.9h-29.4l0,55.1   c0,31.8,20.5,57.6,52.3,57.6c31.8,0,52.6-25.8,52.6-57.6L333.7,39.8z"/><rect class="st0" height="143.5" width="29.3" x="599.3" y="6.2"/><g><path class="st0" d="M650.3,11.5V6.4h22.8v5.2h-8.4v22.7h-6.1V11.5H650.3z"/><path class="st0" d="M684.9,6.4l6.5,19.2h0.1l6.2-19.2h8.6v27.9h-5.7V14.5h-0.1l-6.8,19.8H689l-6.8-19.6h-0.1v19.6h-5.7V6.4H684.9    z"/></g><path class="st0" d="M204.8,38.6c-25.3-5.8-41.2,19.3-41.9,20.6c-0.3,0.7-0.3,1-1.5,1c-0.9,0-1-1-1-1L157.3,40h-26.3v109.6h29.4   V90.3c0-4.8,13.1-28.1,38.3-22.1c12.8,3,18.2,8.5,18.2,8.5s0-21.2,0-33.4C212.3,40.8,209.1,39.6,204.8,38.6z"/><path class="st0" d="M373.6,185.7v-39.4c0,0,0,0,0,0l0-14.8c0,0,0-1.2,1.1-1.2c1,0,1.2,0.6,1.4,1.2c2.2,5.6,14.5,26.7,41.7,20.1   c24.4-6.9,42.3-29.3,42.3-55.9c0-32-26-58-58-58s-58,26-58,58c0,0,0,79.3,0,90L373.6,185.7L373.6,185.7z M402.1,66.4   c16.2,0,29.4,13.2,29.4,29.4c0,16.2-13.1,29.4-29.4,29.4c-16.2,0-29.4-13.2-29.4-29.4C372.8,79.5,385.9,66.4,402.1,66.4z"/><path class="st0" d="M557.9,149.7h29.5V95.8c0-32-26-58-58-58c-32,0-58,26-58,58c0,26.6,17.9,49,42.3,55.9   c27.2,6.6,39.5-14.5,41.7-20.1c0.2-0.6,0.4-1.2,1.4-1.2c1.1,0,1.1,1.2,1.1,1.2 M558.7,95.8c0,16.2-13.2,29.4-29.4,29.4   c-16.2,0-29.4-13.2-29.4-29.4c0-16.2,13.2-29.4,29.4-29.4C545.6,66.4,558.7,79.5,558.7,95.8z"/><g><path class="st0" d="M38.8,149.5H5.4V6.2h35.9c43.5,0,76.5,8,76.5,71.6C117.8,140.9,82.8,149.5,38.8,149.5z M46.8,31H35v93.6    l12.2,0.3c24.9,0,41-2.3,41-47.1C88.1,34.8,74,31,46.8,31z"/></g></g></svg>