<svg id="linkedin" xmlns="http://www.w3.org/2000/svg" width="26.693" height="26.62" viewBox="0 0 26.693 26.62">
  <path id="Path_238" data-name="Path 238" d="M.438,8.825H5.98v17.8H.438ZM3.209,0A3.191,3.191,0,0,1,6.418,3.209,3.209,3.209,0,0,1,0,3.209H0A3.191,3.191,0,0,1,3.209,0"/>
  <path id="Path_239" data-name="Path 239" d="M25.836,23.432h5.288v2.443H31.2a5.841,5.841,0,0,1,5.251-2.881c5.579,0,6.637,3.683,6.637,8.46v9.773H37.542V32.585c0-2.079-.036-4.741-2.881-4.741-2.881,0-3.318,2.261-3.318,4.558V41.19H25.8l.036-17.759Z" transform="translate(-16.392 -14.607)"/>
</svg>
