<?xml version="1.0" encoding="UTF-8"?><svg id="Layer_2" xmlns="http://www.w3.org/2000/svg" viewBox="0 0 313.56 68.72"><defs><style>.cls-1{fill:#f06923;}</style></defs><g id="Layer_1-2"><g><path class="cls-1" d="m88.4,2.31h-25.83l-29.13,23.74,14.03,37.74,5.59-9.93h21.66l.36,10.19h19.98l-6.66-61.74Zm-27.62,38.2l12.69-22.19.87,22.19h-13.56Z"/><polygon class="cls-1" points="16.54 2.31 10.38 25.31 38.8 2.31 16.54 2.31"/><polygon class="cls-1" points="0 64.05 26.75 64.05 17.28 39.15 3.85 49.67 0 64.05"/></g><g><path d="m117.58,31.24l-6-13.59v13.59h-4.99V2.52h4.99v12.78l5.44-12.78h5.32l-5.44,13.96,6.09,14.77h-5.4Z"/><path d="m138.22,10.63v20.61h-3.21l-.57-1.14c-1.18,1.14-2.76,1.7-4.22,1.7-3.77,0-5.96-2.52-5.96-7.34v-7.06c0-4.83,2.19-7.34,5.96-7.34,1.46,0,3.04.57,4.22,1.7l.57-1.14h3.21Zm-4.79,14.73v-8.84c-.12-1.3-1.1-1.99-2.15-1.99-1.54,0-2.19.97-2.19,2.84v7.14c0,1.87.65,2.84,2.19,2.84,1.06,0,2.03-.69,2.15-1.99Z"/><path d="m163.7,17.41v13.84h-4.83v-13.88c0-1.87-.57-2.84-1.87-2.84-.97,0-1.87.69-1.99,1.99v14.73h-4.83v-13.88c0-1.87-.57-2.84-1.83-2.84-.93,0-1.79.61-1.99,1.7v15.01h-4.83V10.63h2.92l.77,1.26c1.22-1.22,2.84-1.83,4.34-1.83,1.83,0,3.29.69,4.22,1.95,1.18-1.3,2.88-1.95,4.42-1.95,3.45,0,5.48,2.52,5.48,7.34Z"/><path d="m176.44,10.31v4.26c-.32-.12-.69-.16-.97-.16-2.11,0-3.85,1.74-3.85,3.9v12.94h-4.83V10.63h3.25l.81,1.62c1.42-1.3,3.33-1.99,4.99-1.99.2,0,.45,0,.61.04Z"/><path d="m192.02,10.63v20.61h-3.21l-.57-1.14c-1.18,1.14-2.76,1.7-4.22,1.7-3.77,0-5.96-2.52-5.96-7.34v-7.06c0-4.83,2.19-7.34,5.96-7.34,1.46,0,3.04.57,4.22,1.7l.57-1.14h3.21Zm-4.79,14.73v-8.84c-.12-1.3-1.1-1.99-2.15-1.99-1.54,0-2.19.97-2.19,2.84v7.14c0,1.87.65,2.84,2.19,2.84,1.06,0,2.03-.69,2.15-1.99Z"/><path d="m209.3,17.41v13.84h-4.83v-13.88c0-1.87-.65-2.84-2.11-2.84-1.14,0-1.99.61-2.19,1.7v15.01h-4.83V10.63h2.92l.77,1.26c1.18-1.22,2.84-1.83,4.34-1.83,3.73,0,5.92,2.52,5.92,7.34Z"/><path d="m230.15,25.07h-4.99l-1.34,6.17h-4.83l5.68-28.73h6.04l5.72,28.73h-4.95l-1.34-6.17Zm-2.48-16.07l-1.7,11.44h3.37l-1.66-11.44Z"/><path d="m248.49,10.31v4.26c-.33-.12-.69-.16-.97-.16-2.11,0-3.85,1.74-3.85,3.9v12.94h-4.83V10.63h3.25l.81,1.62c1.42-1.3,3.33-1.99,4.99-1.99.2,0,.45,0,.61.04Z"/><path d="m249.78,25.28v-.45h4.67v.45c0,1.34.97,2.07,2.07,2.07,1.38,0,2.07-.77,2.07-1.87,0-3.21-8.2-2.23-8.2-9.13,0-3.81,2.56-6.29,6.29-6.29s6.49,2.56,6.49,6.33v.41h-4.67v-.45c0-1.14-.69-1.83-1.79-1.83s-1.66.61-1.66,1.58c0,3.12,8.2,2.35,8.2,9.29,0,4.22-3.04,6.41-6.74,6.41-4.02,0-6.74-2.68-6.74-6.53Z"/><path d="m279.84,17.41v13.84h-4.83v-13.84c0-1.83-.69-2.8-2.19-2.8-1.1,0-1.91.57-2.11,1.7v14.93h-4.83V0h4.83v10.95c1.01-.61,2.11-.89,3.21-.89,3.69,0,5.92,2.52,5.92,7.34Z"/><path d="m296.6,10.63v20.61h-3.21l-.57-1.14c-1.18,1.14-2.76,1.7-4.22,1.7-3.77,0-5.96-2.52-5.96-7.34v-7.06c0-4.83,2.19-7.34,5.96-7.34,1.46,0,3.04.57,4.22,1.7l.57-1.14h3.21Zm-4.79,14.73v-8.84c-.12-1.3-1.1-1.99-2.15-1.99-1.54,0-2.19.97-2.19,2.84v7.14c0,1.87.65,2.84,2.19,2.84,1.05,0,2.03-.69,2.15-1.99Z"/><path d="m313.56,0v31.24h-3.21l-.57-1.14c-1.18,1.14-2.76,1.7-4.22,1.7-3.77,0-5.96-2.52-5.96-7.34v-7.06c0-4.83,2.19-7.34,5.96-7.34,1.05,0,2.19.32,3.21.93V0h4.79Zm-4.79,25.36v-8.84c-.12-1.3-1.1-1.99-2.15-1.99-1.54,0-2.19.97-2.19,2.84v7.14c0,1.87.65,2.84,2.19,2.84,1.05,0,2.03-.69,2.15-1.99Z"/></g><g><path d="m116.04,61.86c1.05,0,1.99-.18,2.82-.55s1.53-.87,2.11-1.52c.58-.65,1.02-1.41,1.32-2.3.3-.88.46-1.83.46-2.85v-13.52h1.58v13.52c0,1.21-.19,2.33-.57,3.38-.38,1.05-.93,1.96-1.65,2.74-.72.78-1.59,1.39-2.61,1.83s-2.18.66-3.45.66-2.43-.22-3.45-.66c-1.03-.44-1.9-1.05-2.61-1.83-.72-.78-1.26-1.69-1.65-2.74-.38-1.05-.57-2.17-.57-3.38v-13.52h1.59v13.51c0,1.02.15,1.97.46,2.85.3.88.74,1.65,1.31,2.3.57.65,1.27,1.16,2.1,1.53.83.37,1.77.56,2.82.56Z"/><path d="m132.8,62.99h-1.59v-21.87h1.59v21.87Z"/><path d="m153.93,61.86c1.05,0,1.99-.18,2.82-.55s1.53-.87,2.11-1.52c.58-.65,1.02-1.41,1.32-2.3.3-.88.46-1.83.46-2.85v-13.52h1.58v13.52c0,1.21-.19,2.33-.57,3.38-.38,1.05-.93,1.96-1.65,2.74-.72.78-1.59,1.39-2.61,1.83s-2.18.66-3.45.66-2.43-.22-3.45-.66c-1.03-.44-1.9-1.05-2.61-1.83-.72-.78-1.26-1.69-1.65-2.74-.38-1.05-.57-2.17-.57-3.38v-13.52h1.59v13.51c0,1.02.15,1.97.46,2.85.3.88.74,1.65,1.31,2.3.57.65,1.27,1.16,2.1,1.53.83.37,1.77.56,2.82.56Z"/><path d="m173.43,51.77l-7.54-10.65h1.56c.14,0,.25.03.32.09.07.06.13.13.18.22l6.65,9.58c.03-.08.06-.16.1-.24.04-.08.08-.16.13-.24l6.41-9.09c.06-.08.13-.16.2-.22.07-.07.16-.1.26-.1h1.51l-7.56,10.57,7.87,11.3h-1.56c-.14,0-.26-.04-.34-.13s-.15-.17-.2-.25l-6.89-10.08c-.04.15-.11.3-.22.45l-6.77,9.63c-.07.09-.15.18-.25.26s-.2.12-.32.12h-1.44l7.9-11.22Z"/><path d="m211.42,52.05c0,1.69-.25,3.21-.76,4.56-.5,1.35-1.22,2.5-2.13,3.45s-2.01,1.67-3.29,2.18c-1.28.5-2.69.76-4.25.76h-7.98v-21.87h7.98c1.56,0,2.97.25,4.25.76,1.28.5,2.38,1.23,3.29,2.18.92.95,1.63,2.1,2.13,3.45.5,1.35.76,2.86.76,4.54Zm-1.64,0c0-1.52-.21-2.88-.63-4.08-.42-1.19-1.02-2.2-1.79-3.03-.77-.82-1.69-1.45-2.77-1.89-1.08-.43-2.28-.65-3.6-.65h-6.38v19.3h6.38c1.32,0,2.52-.22,3.6-.65,1.08-.43,2.01-1.06,2.77-1.89.77-.82,1.36-1.83,1.79-3.03.42-1.19.63-2.56.63-4.1Z"/><path d="m221.56,47.36c.87,0,1.67.15,2.4.45.74.3,1.38.73,1.92,1.31.54.57.96,1.28,1.27,2.11.3.83.46,1.79.46,2.88,0,.23-.03.38-.1.46-.07.08-.17.12-.32.12h-11.1v.29c0,1.15.13,2.17.4,3.04.27.88.65,1.61,1.14,2.2.49.59,1.09,1.04,1.79,1.34.7.3,1.48.45,2.35.45.77,0,1.44-.08,2.01-.25.57-.17,1.04-.36,1.43-.57.39-.21.69-.4.92-.57.23-.17.39-.25.49-.25.13,0,.24.05.31.15l.4.49c-.25.31-.57.6-.98.87s-.86.5-1.36.69c-.5.19-1.04.34-1.61.46-.57.11-1.15.17-1.72.17-1.05,0-2.01-.18-2.88-.55s-1.61-.9-2.23-1.6-1.1-1.56-1.44-2.57c-.34-1.01-.51-2.18-.51-3.49,0-1.1.16-2.12.47-3.05.31-.93.77-1.74,1.36-2.41s1.32-1.2,2.18-1.58,1.84-.57,2.93-.57Zm.02,1.1c-.79,0-1.5.12-2.13.37-.63.25-1.17.6-1.63,1.07s-.83,1.02-1.11,1.67c-.28.65-.47,1.38-.56,2.18h10.12c0-.82-.11-1.56-.34-2.22s-.54-1.21-.96-1.66c-.41-.45-.91-.8-1.48-1.04s-1.21-.36-1.91-.36Z"/><path d="m240.03,49.53c-.07.14-.18.22-.34.22-.11,0-.26-.06-.44-.19s-.42-.27-.71-.43c-.29-.16-.65-.3-1.08-.43-.43-.13-.95-.19-1.57-.19-.56,0-1.06.08-1.52.24-.46.16-.85.37-1.17.64s-.58.58-.76.93c-.18.35-.27.73-.27,1.12,0,.48.12.88.37,1.2.25.32.57.59.97.82.4.23.86.42,1.37.59s1.03.33,1.57.49c.54.16,1.06.35,1.57.55.51.2.97.45,1.37.75.4.3.73.66.97,1.1s.37.96.37,1.58c0,.67-.12,1.29-.36,1.87s-.59,1.08-1.05,1.5c-.46.42-1.02.76-1.69,1-.67.25-1.43.37-2.29.37-1.08,0-2.01-.17-2.8-.52s-1.48-.8-2.1-1.35l.36-.53c.05-.08.11-.14.17-.19.06-.04.15-.06.26-.06.13,0,.3.08.49.25.2.17.45.34.77.53.31.19.71.37,1.17.53.47.17,1.05.25,1.74.25.65,0,1.22-.09,1.72-.27.5-.18.91-.43,1.24-.73s.58-.67.75-1.09c.17-.42.25-.86.25-1.32,0-.52-.12-.94-.37-1.28-.25-.34-.57-.63-.97-.87-.4-.24-.86-.44-1.37-.6-.51-.17-1.04-.33-1.58-.49s-1.07-.35-1.58-.54c-.51-.2-.97-.44-1.37-.74s-.73-.66-.97-1.09-.37-.96-.37-1.6c0-.55.12-1.07.36-1.58s.57-.95,1.01-1.33c.44-.38.97-.69,1.6-.91.63-.23,1.33-.34,2.12-.34.94,0,1.77.14,2.5.41.73.27,1.39.69,2,1.25l-.33.51Z"/><path d="m247.4,42.31c0,.19-.04.36-.12.52-.08.16-.18.3-.3.43-.12.12-.27.22-.43.29-.17.07-.34.11-.53.11s-.36-.04-.53-.11c-.17-.07-.31-.17-.43-.29-.12-.12-.22-.27-.29-.43-.07-.16-.11-.33-.11-.52s.04-.36.11-.53.17-.32.29-.44c.12-.12.27-.22.43-.29.17-.07.34-.11.53-.11s.36.04.53.11c.17.07.31.17.43.29.12.12.22.27.3.44s.12.35.12.53Zm-.65,5.3v15.38h-1.47v-15.38h1.47Z"/><path d="m257.26,47.35c.67,0,1.29.08,1.86.25.57.16,1.08.4,1.54.7h3.94v.51c0,.26-.14.4-.43.42l-2.33.17c.29.39.51.83.66,1.32.16.49.23,1.01.23,1.57,0,.74-.13,1.41-.4,2.02-.27.6-.64,1.12-1.12,1.55-.48.43-1.05.76-1.72,1-.67.24-1.41.36-2.23.36-.89,0-1.69-.13-2.41-.4-.43.25-.77.54-1.02.88-.25.34-.37.67-.37.99,0,.44.15.78.46,1.02.31.24.72.41,1.23.52.51.11,1.09.18,1.75.21.65.03,1.32.06,1.99.1s1.34.1,1.99.19,1.24.25,1.75.49.92.56,1.23.97c.31.42.46.97.46,1.66,0,.64-.16,1.25-.48,1.84s-.78,1.11-1.38,1.56-1.33.82-2.19,1.09c-.86.27-1.81.41-2.88.41s-2.03-.11-2.84-.33c-.81-.22-1.5-.52-2.05-.9-.55-.38-.97-.81-1.24-1.31s-.42-1.02-.42-1.58c0-.81.27-1.51.8-2.1.54-.59,1.27-1.04,2.21-1.36-.52-.17-.92-.43-1.23-.76-.3-.33-.46-.79-.46-1.38,0-.22.04-.44.12-.68.08-.24.21-.47.37-.7s.36-.45.6-.66c.23-.21.5-.39.81-.56-.73-.42-1.3-.98-1.71-1.68-.41-.7-.61-1.52-.61-2.46,0-.74.13-1.41.39-2.02.26-.6.63-1.12,1.11-1.55.48-.43,1.06-.77,1.74-1,.68-.24,1.43-.36,2.26-.36Zm5.7,16.68c0-.48-.13-.87-.38-1.17-.25-.29-.59-.52-1.01-.69-.42-.16-.91-.28-1.46-.35-.55-.07-1.13-.12-1.73-.15-.6-.03-1.21-.06-1.82-.09-.61-.03-1.17-.09-1.7-.19-.39.15-.75.33-1.09.53-.33.2-.62.43-.86.68-.24.25-.42.53-.56.83-.13.3-.2.64-.2,1,0,.45.12.87.35,1.26.23.39.57.72,1.02,1,.45.28,1,.51,1.65.67.65.16,1.4.25,2.24.25.78,0,1.51-.09,2.19-.26s1.26-.42,1.76-.74c.5-.32.89-.7,1.17-1.14s.42-.93.42-1.45Zm-5.7-7.84c.66,0,1.25-.1,1.76-.29.52-.19.95-.46,1.3-.8.35-.34.62-.75.8-1.22.18-.47.27-1,.27-1.58s-.09-1.1-.28-1.58c-.19-.48-.46-.89-.81-1.23s-.79-.6-1.3-.79c-.51-.19-1.09-.28-1.74-.28s-1.23.09-1.75.28c-.52.19-.95.45-1.31.79s-.63.75-.81,1.23c-.19.48-.28,1.01-.28,1.58s.09,1.1.28,1.58.46.88.81,1.22c.36.34.79.61,1.31.8.51.19,1.1.29,1.75.29Z"/><path d="m267.79,62.99v-15.38h.8c.27,0,.42.13.46.39l.14,2.32c.7-.89,1.52-1.6,2.45-2.14.93-.54,1.97-.81,3.11-.81.84,0,1.59.13,2.23.4.64.27,1.18.65,1.6,1.16.42.5.74,1.11.96,1.82.22.71.32,1.51.32,2.41v9.83h-1.47v-9.83c0-1.44-.33-2.57-.99-3.39s-1.67-1.23-3.03-1.23c-1.01,0-1.95.26-2.81.78-.87.52-1.64,1.23-2.32,2.14v11.53h-1.47Z"/><path d="m290.31,47.36c.87,0,1.67.15,2.4.45.74.3,1.38.73,1.92,1.31.54.57.96,1.28,1.27,2.11.3.83.46,1.79.46,2.88,0,.23-.03.38-.1.46-.07.08-.17.12-.32.12h-11.1v.29c0,1.15.13,2.17.4,3.04.27.88.65,1.61,1.14,2.2.5.59,1.09,1.04,1.79,1.34.7.3,1.48.45,2.35.45.77,0,1.44-.08,2.01-.25.57-.17,1.04-.36,1.43-.57.39-.21.69-.4.92-.57s.39-.25.5-.25c.13,0,.24.05.31.15l.4.49c-.25.31-.58.6-.98.87-.41.27-.86.5-1.36.69-.5.19-1.04.34-1.61.46-.57.11-1.15.17-1.72.17-1.05,0-2.01-.18-2.88-.55-.87-.37-1.61-.9-2.23-1.6-.62-.7-1.1-1.56-1.44-2.57-.34-1.01-.51-2.18-.51-3.49,0-1.1.16-2.12.47-3.05.31-.93.77-1.74,1.36-2.41.59-.67,1.32-1.2,2.18-1.58s1.84-.57,2.93-.57Zm.02,1.1c-.79,0-1.5.12-2.13.37-.63.25-1.17.6-1.63,1.07-.46.46-.83,1.02-1.11,1.67-.28.65-.47,1.38-.56,2.18h10.12c0-.82-.11-1.56-.34-2.22s-.54-1.21-.96-1.66c-.41-.45-.91-.8-1.48-1.04s-1.21-.36-1.91-.36Z"/><path d="m300.31,62.99v-15.38h.77c.17,0,.3.04.38.11s.12.2.13.37l.12,3.25c.49-1.25,1.15-2.22,1.98-2.93.82-.71,1.84-1.06,3.04-1.06.46,0,.89.05,1.28.15.39.1.76.24,1.11.42l-.2,1.02c-.03.17-.13.25-.31.25-.06,0-.15-.02-.26-.06-.11-.04-.26-.09-.43-.14-.17-.05-.38-.1-.63-.14-.25-.04-.53-.06-.85-.06-1.17,0-2.12.36-2.87,1.08s-1.35,1.76-1.82,3.12v10h-1.47Z"/></g></g></svg>